<?xml version="1.0" standalone="no"?>
<!DOCTYPE svg PUBLIC "-//W3C//DTD SVG 20010904//EN"
 "http://www.w3.org/TR/2001/REC-SVG-20010904/DTD/svg10.dtd">
<svg version="1.0" xmlns="http://www.w3.org/2000/svg"
 width="204.000000pt" height="194.000000pt" viewBox="0 0 204.000000 194.000000"
 preserveAspectRatio="xMidYMid meet">
<metadata>
Created by potrace 1.15, written by Peter Selinger 2001-2017
</metadata>
<g transform="translate(0.000000,194.000000) scale(0.100000,-0.100000)"
fill="#000000" stroke="none">
<path d="M0 970 l0 -970 1020 0 1020 0 0 970 0 970 -1020 0 -1020 0 0 -970z
m1960 20 l0 -930 -940 0 -940 0 0 930 0 930 940 0 940 0 0 -930z"/>
<path d="M1096 1442 l-298 -56 7 -196 c4 -107 10 -224 14 -260 l6 -65 194 248
c150 190 199 247 216 247 18 0 160 -102 248 -178 15 -13 17 -13 13 -1 -2 8
-16 66 -31 129 -40 174 -45 190 -58 189 -7 -1 -146 -26 -311 -57z"/>
<path d="M1135 1133 c-59 -76 -111 -143 -116 -148 -6 -9 127 -125 222 -193 16
-11 30 3 135 133 64 81 113 150 108 154 -9 8 -211 168 -230 183 -8 6 -48 -38
-119 -129z"/>
<path d="M901 838 c-34 -44 -61 -82 -58 -84 2 -3 76 -3 164 -2 l159 3 -101 81
-102 82 -62 -80z"/>
<path d="M1113 525 c-13 -9 -23 -27 -23 -41 0 -13 -7 -27 -15 -30 -8 -4 -15
-15 -15 -25 0 -10 7 -19 15 -19 12 0 15 -14 15 -70 0 -63 2 -70 20 -70 18 0
20 7 20 70 0 68 1 70 25 70 18 0 25 5 25 20 0 15 -7 20 -25 20 -39 0 -34 39 5
47 21 4 30 11 28 22 -4 22 -48 25 -75 6z"/>
<path d="M690 400 l0 -130 49 0 c71 0 106 31 106 93 0 59 -24 87 -77 87 -38 0
-38 0 -38 40 0 33 -3 40 -20 40 -19 0 -20 -7 -20 -130z"/>
<path d="M280 395 c0 -118 1 -125 20 -125 16 0 20 7 20 38 0 35 14 62 31 62 4
0 24 -22 44 -50 27 -36 43 -50 61 -50 23 0 22 3 -26 64 -27 35 -50 67 -50 71
0 4 20 30 45 58 37 43 42 53 28 56 -11 2 -35 -16 -68 -53 -27 -31 -53 -56 -57
-56 -5 0 -8 25 -8 55 0 48 -2 55 -20 55 -19 0 -20 -7 -20 -125z"/>
<path d="M1340 452 c-97 -48 -64 -187 45 -187 50 0 79 21 95 70 16 48 -8 101
-54 120 -44 19 -44 19 -86 -3z"/>
<path d="M500 377 c0 -78 10 -97 57 -111 26 -8 78 16 87 39 3 9 6 46 6 81 0
57 -2 64 -20 64 -17 0 -19 -8 -22 -72 l-3 -73 -30 0 -30 0 -3 73 c-3 64 -5 72
-22 72 -18 0 -20 -7 -20 -73z"/>
<path d="M901 424 c-43 -55 -13 -150 49 -155 59 -5 80 1 80 20 0 16 -5 18 -40
14 -38 -5 -70 8 -70 28 0 5 27 9 61 9 52 0 60 2 55 16 -3 9 -6 24 -6 35 0 57
-92 80 -129 33z"/>
<path d="M1495 429 c44 -138 52 -154 77 -157 22 -3 26 2 39 50 l15 53 13 -53
c12 -48 16 -53 38 -50 22 3 28 14 53 91 l28 87 -24 0 c-19 0 -25 -8 -35 -42
-18 -64 -25 -65 -40 -9 -10 42 -17 51 -35 51 -18 0 -24 -9 -35 -50 -7 -27 -16
-50 -19 -50 -3 0 -12 23 -19 50 -11 43 -16 50 -38 50 -20 0 -23 -4 -18 -21z"/>
</g>
</svg>
